<svg xmlns="http://www.w3.org/2000/svg" width="207" height="207" viewBox="0 0 207 207"><style type="text/css">.st0{fill:#f23b42;} .st1{fill:#C7332E;} .st2{fill:#FFFFFF;}</style><path class="st0" d="M178.1 0h-149.2c-16 0-28.9 12.9-28.9 28.9v149.3c0 15.9 12.9 28.8 28.9 28.8h149.3c15.9 0 28.9-12.9 28.9-28.9v-149.2c-.1-16-13-28.9-29-28.9z"/><path class="st1" d="M135.4 82.8h-37.7c-2.9 0-5.3-2.4-5.3-5.3v-30.8c0-2.9-2.4-5.3-5.3-5.3h-15.5c-2.9 0-5.3 2.4-5.3 5.3v113.3c0 2.9 2.4 5.3 5.3 5.3h63.8c2.9 0 5.3-2.3 5.3-5.2v-72c0-2.9-2.4-5.3-5.3-5.3zm-20.9 56.4h-22v-30.2h22v30.2z"/><path class="st2" d="M135.4 81.1h-37.7c-2.9 0-5.3-2.4-5.3-5.3v-30.8c0-2.9-2.4-5.3-5.3-5.3h-15.5c-2.9 0-5.3 2.4-5.3 5.3v113.3c0 2.9 2.4 5.3 5.3 5.3h63.8c2.9 0 5.3-2.3 5.3-5.2v-72c0-2.9-2.4-5.3-5.3-5.3zm-20.9 56.4h-22v-30.2h22v30.2z"/></svg>