<svg xmlns="http://www.w3.org/2000/svg" viewBox="0 0 207.9 207.9" enable-background="new 0 0 207.9 207.9"><linearGradient id="a" gradientUnits="userSpaceOnUse" x1="199.363" y1="199.363" x2="8.491" y2="8.491"><stop offset="0" stop-color="#D60A57"/><stop offset=".5" stop-color="#F43540"/><stop offset="1" stop-color="#FF6B48"/></linearGradient><path fill="url(#a)" d="M178.9 0h-149.9c-16 0-29 13-29 29v149.9c0 16 13 29 29 29h149.9c16 0 29-13 29-29v-149.9c0-16-13-29-29-29zm-37 159c0 2.9-2.4 5.3-5.3 5.3h-64.3c-2.9 0-5.3-2.4-5.3-5.3v-114.1c0-2.9 2.4-5.3 5.3-5.3h15.8c2.9 0 5.3 2.4 5.3 5.3v31c0 2.9 2.4 5.3 5.3 5.3h37.9c2.9 0 5.3 2.4 5.3 5.3v72.5z"/><linearGradient id="b" gradientUnits="userSpaceOnUse" x1="117.615" y1="135.897" x2="91.319" y2="109.602"><stop offset="0" stop-color="#EF2B43"/><stop offset="1" stop-color="#F53640"/></linearGradient><path fill="url(#b)" d="M93.4 107.5h22.1v30.5h-22.1z"/></svg>