<svg xmlns="http://www.w3.org/2000/svg" width="207" height="207" viewBox="-995 317 207 207" enable-background="new -995 317 207 207"><style type="text/css">.st0{fill:url(#SVGID_1_);} .st1{fill:url(#SVGID_2_);}</style><linearGradient id="SVGID_1_" gradientUnits="userSpaceOnUse" x1="-795.6" y1="325.48" x2="-986.5" y2="516.38" gradientTransform="matrix(1 0 0 -1 0 841.87)"><stop offset="0" stop-color="#D60A57"/><stop offset=".5" stop-color="#F43540"/><stop offset="1" stop-color="#FF6B48"/></linearGradient><path class="st0" d="M-816.1 317h-149.9c-16 0-29 13-29 29v149.9c0 16 13 29 29 29h149.9c16 0 29-13 29-29v-149.9c0-16-13-29-29-29zm-37 159c0 2.9-2.4 5.3-5.3 5.3h-64.3c-2.9 0-5.3-2.4-5.3-5.3v-114.1c0-2.9 2.4-5.3 5.3-5.3h15.8c2.9 0 5.3 2.4 5.3 5.3v31c0 2.9 2.4 5.3 5.3 5.3h37.9c2.9 0 5.3 2.4 5.3 5.3v72.5z"/><linearGradient id="SVGID_2_" gradientUnits="userSpaceOnUse" x1="-877.4" y1="388.98" x2="-903.7" y2="415.28" gradientTransform="matrix(1 0 0 -1 0 841.87)"><stop offset="0" stop-color="#EF2B43"/><stop offset="1" stop-color="#F53640"/></linearGradient><path class="st1" d="M-901.6 424.5h22.1v30.5h-22.1v-30.5z"/></svg>
