<svg xmlns="http://www.w3.org/2000/svg" xmlns:xlink="http://www.w3.org/1999/xlink" viewBox="0 0 274 274" enable-background="new 0 0 274 274"><path fill="#fff" d="M95.7 20.9h133v233h-133zM0 93.6h101.5v86.8h-101.5z"/><defs><path id="a" d="M96.1 274h-91.1c-2.8 0-5-2.2-5-5v-83.6c0-2.8 2.2-5 5-5h91.1c2.8 0 5 2.2 5 5v83.6c0 2.8-2.2 5-5 5z"/></defs><clipPath id="b"><use xlink:href="#a" overflow="visible"/></clipPath><path clip-path="url(#b)" fill="#956BD3" d="M221.1 274h-168.2c-29.1 0-52.9-23.8-52.9-52.9v-168.2c0-29.1 23.8-52.9 52.9-52.9h168.2c29.1 0 52.9 23.8 52.9 52.9v168.2c0 29.1-23.8 52.9-52.9 52.9z"/><defs><path id="c" d="M221.1 274h-168.2c-29.1 0-52.9-23.8-52.9-52.9v-168.2c0-29.1 23.8-52.9 52.9-52.9h168.2c29.1 0 52.9 23.8 52.9 52.9v168.2c0 29.1-23.8 52.9-52.9 52.9z"/></defs><clipPath id="d"><use xlink:href="#c" overflow="visible"/></clipPath><path clip-path="url(#d)" fill="#4C1EB9" d="M40.858 278.839l256.327-197.177 182.483 237.225-256.327 197.177z"/><g opacity=".3"><defs><path id="e" opacity=".3" d="M221.1 274h-168.2c-29.1 0-52.9-23.8-52.9-52.9v-164.2c0-29.1 23.8-52.9 52.9-52.9h168.2c29.1 0 52.9 23.8 52.9 52.9v164.2c0 29.1-23.8 52.9-52.9 52.9z"/></defs><clipPath id="f"><use xlink:href="#e" overflow="visible"/></clipPath><path clip-path="url(#f)" fill="#000064" d="M223.349-238.066l256.327 197.177-182.483 237.225-256.327-197.177z"/></g><g opacity=".2"><defs><path id="g" opacity=".2" d="M96.1 96.6h-91.1c-2.8 0-5-2.2-5-5v-83.6c0-2.8 2.2-5 5-5h91.1c2.8 0 5 2.2 5 5v83.6c0 2.7-2.2 5-5 5z"/></defs><clipPath id="h"><use xlink:href="#g" overflow="visible"/></clipPath><path clip-path="url(#h)" fill="#000064" d="M221.1 277h-168.2c-29.1 0-52.9-23.8-52.9-52.9v-168.2c0-29.1 23.8-52.9 52.9-52.9h168.2c29.1 0 52.9 23.8 52.9 52.9v168.2c0 29.1-23.8 52.9-52.9 52.9z"/></g><defs><path id="i" d="M221.1 274h-168.2c-29.1 0-52.9-23.8-52.9-52.9v-168.2c0-29.1 23.8-52.9 52.9-52.9h168.2c29.1 0 52.9 23.8 52.9 52.9v168.2c0 29.1-23.8 52.9-52.9 52.9z"/></defs><clipPath id="j"><use xlink:href="#i" overflow="visible"/></clipPath><path clip-path="url(#j)" fill="#6A35C0" d="M223.349-242.066l256.327 197.177-182.483 237.225-256.327-197.177z"/><defs><path id="k" d="M96.1 93.6h-91.1c-2.8 0-5-2.2-5-5v-83.6c0-2.8 2.2-5 5-5h96c.1 0 .2.1.2.2v88.4c-.1 2.7-2.3 5-5.1 5z"/></defs><clipPath id="l"><use xlink:href="#k" overflow="visible"/></clipPath><path clip-path="url(#l)" fill="#933CC7" d="M221.1 274h-168.2c-29.1 0-52.9-23.8-52.9-52.9v-168.2c0-29.1 23.8-52.9 52.9-52.9h168.2c29.1 0 52.9 23.8 52.9 52.9v168.2c0 29.1-23.8 52.9-52.9 52.9z"/></svg>