<?xml version="1.0" encoding="utf-8"?>
<!-- Generator: Adobe Illustrator 18.1.1, SVG Export Plug-In . SVG Version: 6.00 Build 0)  -->
<!DOCTYPE svg PUBLIC "-//W3C//DTD SVG 1.1//EN" "http://www.w3.org/Graphics/SVG/1.1/DTD/svg11.dtd">
<svg version="1.1" id="レイヤー_1" xmlns="http://www.w3.org/2000/svg" xmlns:xlink="http://www.w3.org/1999/xlink" x="0px"
	 y="0px" viewBox="0 0 274 274" enable-background="new 0 0 274 274" xml:space="preserve">
<rect x="95.7" y="20.9" fill="#FFFFFF" width="133" height="233"/>
<rect x="0" y="93.6" fill="#FFFFFF" width="101.5" height="86.8"/>
<g>
	<defs>
		<path id="SVGID_1_" d="M96.1,274H5c-2.8,0-5-2.2-5-5v-83.6c0-2.8,2.2-5,5-5h91.1c2.8,0,5,2.2,5,5V269
			C101.1,271.8,98.9,274,96.1,274z"/>
	</defs>
	<clipPath id="SVGID_2_">
		<use xlink:href="#SVGID_1_"  overflow="visible"/>
	</clipPath>
	<path clip-path="url(#SVGID_2_)" fill="#956BD3" d="M221.1,274H52.9C23.8,274,0,250.2,0,221.1V52.9C0,23.8,23.8,0,52.9,0h168.2
		C250.2,0,274,23.8,274,52.9v168.2C274,250.2,250.2,274,221.1,274z"/>
</g>
<g>
	<defs>
		<path id="SVGID_3_" d="M221.1,274H52.9C23.8,274,0,250.2,0,221.1V52.9C0,23.8,23.8,0,52.9,0h168.2C250.2,0,274,23.8,274,52.9
			v168.2C274,250.2,250.2,274,221.1,274z"/>
	</defs>
	<clipPath id="SVGID_4_">
		<use xlink:href="#SVGID_3_"  overflow="visible"/>
	</clipPath>
	
		<rect x="98.6" y="149.2" transform="matrix(0.7926 -0.6097 0.6097 0.7926 -128.2599 220.6998)" clip-path="url(#SVGID_4_)" fill="#4C1EB9" width="323.4" height="299.3"/>
</g>
<g opacity="0.3">
	<defs>
		<path id="SVGID_5_" opacity="0.3" d="M221.1,274H52.9C23.8,274,0,250.2,0,221.1V56.9C0,27.8,23.8,4,52.9,4h168.2
			C250.2,4,274,27.8,274,56.9v164.2C274,250.2,250.2,274,221.1,274z"/>
	</defs>
	<clipPath id="SVGID_6_">
		<use xlink:href="#SVGID_5_"  overflow="visible"/>
	</clipPath>
	
		<rect x="98.6" y="-170.5" transform="matrix(0.7926 0.6097 -0.6097 0.7926 41.2451 -163.044)" clip-path="url(#SVGID_6_)" fill="#000064" width="323.4" height="299.3"/>
</g>
<g opacity="0.2">
	<defs>
		<path id="SVGID_7_" opacity="0.2" d="M96.1,96.6H5c-2.8,0-5-2.2-5-5V8c0-2.8,2.2-5,5-5h91.1c2.8,0,5,2.2,5,5v83.6
			C101.1,94.3,98.9,96.6,96.1,96.6z"/>
	</defs>
	<clipPath id="SVGID_8_">
		<use xlink:href="#SVGID_7_"  overflow="visible"/>
	</clipPath>
	<path clip-path="url(#SVGID_8_)" fill="#000064" d="M221.1,277H52.9C23.8,277,0,253.2,0,224.1V55.9C0,26.8,23.8,3,52.9,3h168.2
		C250.2,3,274,26.8,274,55.9v168.2C274,253.2,250.2,277,221.1,277z"/>
</g>
<g>
	<defs>
		<path id="SVGID_9_" d="M221.1,274H52.9C23.8,274,0,250.2,0,221.1V52.9C0,23.8,23.8,0,52.9,0h168.2C250.2,0,274,23.8,274,52.9
			v168.2C274,250.2,250.2,274,221.1,274z"/>
	</defs>
	<clipPath id="SVGID_10_">
		<use xlink:href="#SVGID_9_"  overflow="visible"/>
	</clipPath>
	
		<rect x="98.6" y="-174.5" transform="matrix(0.7926 0.6097 -0.6097 0.7926 38.8061 -163.8736)" clip-path="url(#SVGID_10_)" fill="#6A35C0" width="323.4" height="299.3"/>
</g>
<g>
	<defs>
		<path id="SVGID_11_" d="M96.1,93.6H5c-2.8,0-5-2.2-5-5V5c0-2.8,2.2-5,5-5h96c0.1,0,0.2,0.1,0.2,0.2v88.4
			C101.1,91.3,98.9,93.6,96.1,93.6z"/>
	</defs>
	<clipPath id="SVGID_12_">
		<use xlink:href="#SVGID_11_"  overflow="visible"/>
	</clipPath>
	<path clip-path="url(#SVGID_12_)" fill="#933CC7" d="M221.1,274H52.9C23.8,274,0,250.2,0,221.1V52.9C0,23.8,23.8,0,52.9,0h168.2
		C250.2,0,274,23.8,274,52.9v168.2C274,250.2,250.2,274,221.1,274z"/>
</g>
</svg>
